<?xml version="1.0" encoding="iso-8859-1"?>
<!-- Generator: Adobe Illustrator 19.0.0, SVG Export Plug-In . SVG Version: 6.00 Build 0)  -->
<svg version="1.1" id="Capa_1" xmlns="http://www.w3.org/2000/svg" xmlns:xlink="http://www.w3.org/1999/xlink" x="0px" y="0px"
	 viewBox="0 0 480 480" style="enable-background:new 0 0 480 480;" xml:space="preserve">
<g>
	<g>
		<path d="M277.456,96.56c5.749-7.098,8.904-15.946,8.944-25.08V40.52C286.374,18.152,268.248,0.026,245.88,0h-11.76
			c-22.368,0.026-40.494,18.152-40.52,40.52v30.96c0.04,9.134,3.195,17.982,8.944,25.08C182.8,99.278,168.069,116.117,168,136.048
			V232c0,4.418,3.582,8,8,8h128c4.418,0,8-3.582,8-8v-95.952C311.931,116.117,297.2,99.278,277.456,96.56z M209.6,40.52
			c0.018-13.535,10.985-24.502,24.52-24.52h11.76c13.535,0.018,24.502,10.985,24.52,24.52v30.96
			c-0.018,13.535-10.985,24.502-24.52,24.52h-11.76c-13.535-0.018-24.502-10.985-24.52-24.52V40.52z M296,224H184v-87.952
			c0.018-13.274,10.774-24.03,24.048-24.048H232v8h16v-8h23.952c13.274,0.018,24.03,10.774,24.048,24.048V224z"/>
	</g>
</g>
<g>
	<g>
		<path d="M109.456,336.56c5.749-7.098,8.904-15.946,8.944-25.08v-30.96c-0.026-22.368-18.152-40.494-40.52-40.52H66.12
			c-22.368,0.026-40.494,18.152-40.52,40.52v30.96c0.04,9.134,3.195,17.982,8.944,25.08C14.8,339.278,0.069,356.117,0,376.048V472
			c0,4.418,3.582,8,8,8h128c4.418,0,8-3.582,8-8v-95.952C143.931,356.117,129.2,339.278,109.456,336.56z M41.6,280.52
			c0.018-13.535,10.985-24.502,24.52-24.52h11.76c13.535,0.018,24.502,10.985,24.52,24.52v30.96
			c-0.018,13.535-10.985,24.502-24.52,24.52H66.12c-13.535-0.018-24.502-10.985-24.52-24.52V280.52z M128,464H16v-87.952
			c0.018-13.274,10.774-24.03,24.048-24.048H64v8h16v-8h23.952c13.274,0.018,24.03,10.774,24.048,24.048V464z"/>
	</g>
</g>
<g>
	<g>
		<path d="M445.456,336.56c5.749-7.098,8.904-15.946,8.944-25.08v-30.96c-0.026-22.368-18.152-40.494-40.52-40.52h-11.76
			c-22.368,0.026-40.494,18.152-40.52,40.52v30.96c0.04,9.134,3.195,17.982,8.944,25.08c-19.744,2.718-34.475,19.557-34.544,39.488
			V472c0,4.418,3.582,8,8,8h128c4.418,0,8-3.582,8-8v-95.952C479.931,356.117,465.2,339.278,445.456,336.56z M377.6,280.52
			c0.018-13.535,10.985-24.502,24.52-24.52h11.76c13.535,0.018,24.502,10.985,24.52,24.52v30.96
			c-0.018,13.535-10.985,24.502-24.52,24.52h-11.76c-13.535-0.018-24.502-10.985-24.52-24.52V280.52z M464,464H352v-87.952
			c0.018-13.274,10.774-24.03,24.048-24.048H400v8h16v-8h23.952c13.274,0.018,24.03,10.774,24.048,24.048V464z"/>
	</g>
</g>
<g>
	<g>
		<path d="M327.128,393.168c-2.01-3.937-6.831-5.498-10.768-3.488c-47.976,24.427-104.744,24.427-152.72,0
			c-3.937-2.01-8.758-0.449-10.768,3.488c-2.01,3.937-0.449,8.758,3.488,10.768c52.551,26.752,114.729,26.752,167.28,0
			C327.577,401.926,329.138,397.105,327.128,393.168z"/>
	</g>
</g>
<g>
	<g>
		<path d="M423.248,223.313C423.248,223.313,423.248,223.312,423.248,223.313C416.66,153.95,371.71,94.151,306.912,68.544
			c-4.118-1.608-8.76,0.426-10.368,4.544c-1.608,4.118,0.426,8.76,4.544,10.368c59.158,23.363,100.201,77.946,106.224,141.264
			c0.372,4.12,3.824,7.276,7.96,7.28H416C420.4,231.603,423.645,227.713,423.248,223.313z"/>
	</g>
</g>
<g>
	<g>
		<path d="M183.456,73.088c-1.608-4.118-6.25-6.152-10.368-4.544C108.299,94.145,63.351,153.93,56.752,223.28
			c-0.415,4.399,2.814,8.301,7.212,8.717c0.012,0.001,0.024,0.002,0.036,0.003h0.728c4.152,0.017,7.626-3.145,8-7.28
			c6.015-63.309,47.042-117.889,106.184-141.264C183.03,81.848,185.064,77.206,183.456,73.088z"/>
	</g>
</g>
<g>
	<g>
		<rect x="232" y="136" width="16" height="64"/>
	</g>
</g>
<g>
	<g>
		<rect x="400" y="376" width="16" height="64"/>
	</g>
</g>
<g>
	<g>
		<rect x="64" y="376" width="16" height="64"/>
	</g>
</g>
<g>
</g>
<g>
</g>
<g>
</g>
<g>
</g>
<g>
</g>
<g>
</g>
<g>
</g>
<g>
</g>
<g>
</g>
<g>
</g>
<g>
</g>
<g>
</g>
<g>
</g>
<g>
</g>
<g>
</g>
</svg>
