<?xml version="1.0" encoding="iso-8859-1"?>
<!-- Generator: Adobe Illustrator 19.0.0, SVG Export Plug-In . SVG Version: 6.00 Build 0)  -->
<svg version="1.1" id="Capa_1" xmlns="http://www.w3.org/2000/svg" xmlns:xlink="http://www.w3.org/1999/xlink" x="0px" y="0px"
	 viewBox="0 0 480.001 480.001" style="enable-background:new 0 0 480.001 480.001;" xml:space="preserve">
<g>
	<g>
		<path d="M479.408,356.489c0.341-1.474,0.539-2.976,0.592-4.488v-328c0-13.255-10.745-24-24-24H24c-13.255,0-24,10.745-24,24v328
			c0,13.255,10.745,24,24,24h140.904l-18.664,56H64c-4.418,0-8,3.582-8,8v32c0,4.418,3.582,8,8,8h304
			c61.856,0.001,112.001-50.143,112.001-111.999C480.001,364.156,479.803,360.314,479.408,356.489z M16,24.001c0-4.418,3.582-8,8-8
			h432c4.418,0,8,3.582,8,8v8H16V24.001z M16,48.001h448v248h-10.336c-39.614-47.311-110.081-53.551-157.391-13.937
			c-5.047,4.226-9.711,8.89-13.937,13.937H16V48.001z M24,360.001c-4.418,0-8-3.582-8-8v-40h255.152
			c-8.519,14.663-13.563,31.083-14.744,48H24z M181.768,376.001h74.64c1.405,20.117,8.251,39.474,19.808,56H163.104L181.768,376.001
			z M72,464.001v-16h217.768c6.298,6.129,13.292,11.499,20.84,16H72z M380.955,463.193c-4.295,0.563-8.623,0.833-12.955,0.807v0
			c-53.019,0.049-96.04-42.891-96.09-95.91c-0.049-53.019,42.891-96.04,95.91-96.09c48.254-0.045,89.043,35.735,95.283,83.584
			c-0.072,0.136-0.096,0.288-0.176,0.416l0.264,0.152C470.041,408.42,433.222,456.344,380.955,463.193z"/>
	</g>
</g>
<g>
	<g>
		<rect x="232" y="328.001" width="16" height="16"/>
	</g>
</g>
<g>
	<g>
		<path d="M271.832,242.385l-55.512-55.52v-78.496c0-4.418-3.582-8-8-8c-49.604,0.003-89.814,40.217-89.811,89.821
			s40.217,89.814,89.821,89.811c23.818-0.001,46.66-9.463,63.502-26.304C274.955,250.573,274.955,245.509,271.832,242.385z
			 M208.32,264.001c-40.767,0.014-73.827-33.023-73.842-73.79c-0.013-37.691,28.371-69.338,65.842-73.41v73.376
			c0,2.122,0.844,4.156,2.344,5.656l51.896,51.904C241.471,258.306,225.143,264.049,208.32,264.001z"/>
	</g>
</g>
<g>
	<g>
		<path d="M297.176,90.289c-16.808-16.891-39.675-26.357-63.504-26.288c-4.418,0-8,3.582-8,8v81.824
			c0.002,3.233,1.95,6.146,4.936,7.384c0.97,0.407,2.012,0.616,3.064,0.616c2.122,0,4.156-0.844,5.656-2.344l57.848-57.88
			C300.299,98.477,300.299,93.413,297.176,90.289z M241.672,134.489v-54.08c14.004,1.485,27.281,6.986,38.232,15.84L241.672,134.489
			z"/>
	</g>
</g>
<g>
	<g>
		<path d="M309.04,120.897c-0.005-0.005-0.011-0.011-0.016-0.016c-3.124-3.123-8.188-3.123-11.312,0l-57.856,57.856
			c-3.123,3.124-3.123,8.188,0,11.312l57.856,57.856c3.124,3.123,8.188,3.123,11.312,0
			C344.101,212.837,344.108,155.974,309.04,120.897z M303.072,230.633l-46.24-46.24l46.24-46.24
			c10.57,13.089,16.313,29.417,16.264,46.24C319.385,201.216,313.642,217.544,303.072,230.633z"/>
	</g>
</g>
<g>
	<g>
		<rect x="40" y="104.001" width="16" height="32"/>
	</g>
</g>
<g>
	<g>
		<rect x="64" y="88.001" width="16" height="48"/>
	</g>
</g>
<g>
	<g>
		<rect x="88" y="64.001" width="16" height="72"/>
	</g>
</g>
<g>
	<g>
		<path d="M442.344,170.345L408,204.689l-10.344-10.344c-3.124-3.123-8.188-3.123-11.312,0l-32,32l11.312,11.312L392,211.313
			l10.344,10.344c3.124,3.123,8.188,3.123,11.312,0l40-40L442.344,170.345z"/>
	</g>
</g>
<g>
	<g>
		<rect x="368" y="64.001" width="72" height="16"/>
	</g>
</g>
<g>
	<g>
		<rect x="368" y="88.001" width="72" height="16"/>
	</g>
</g>
<g>
	<g>
		<rect x="368" y="112.001" width="72" height="16"/>
	</g>
</g>
<g>
	<g>
		<rect x="40" y="248.001" width="24" height="16"/>
	</g>
</g>
<g>
	<g>
		<rect x="40" y="272.001" width="24" height="16"/>
	</g>
</g>
<g>
	<g>
		<path d="M384,360.001h-32c-4.418,0-8-3.582-8-8v-16c0-8.837,7.163-16,16-16h16c8.837,0,16,7.163,16,16h16
			c0-17.673-14.327-32-32-32v-16h-16v16c-17.673,0-32,14.327-32,32v16c0,13.255,10.745,24,24,24h32c4.418,0,8,3.582,8,8v16
			c0,8.837-7.163,16-16,16h-16c-8.837,0-16-7.163-16-16v-8h-16v8c0,17.673,14.327,32,32,32v16h16v-16c17.673,0,32-14.327,32-32v-16
			C408,370.746,397.255,360.001,384,360.001z"/>
	</g>
</g>
<g>
</g>
<g>
</g>
<g>
</g>
<g>
</g>
<g>
</g>
<g>
</g>
<g>
</g>
<g>
</g>
<g>
</g>
<g>
</g>
<g>
</g>
<g>
</g>
<g>
</g>
<g>
</g>
<g>
</g>
</svg>
