<?xml version="1.0" encoding="iso-8859-1"?>
<!-- Generator: Adobe Illustrator 19.0.0, SVG Export Plug-In . SVG Version: 6.00 Build 0)  -->
<svg version="1.1" id="Capa_1" xmlns="http://www.w3.org/2000/svg" xmlns:xlink="http://www.w3.org/1999/xlink" x="0px" y="0px"
	 viewBox="0 0 480.544 480.544" style="enable-background:new 0 0 480.544 480.544;" xml:space="preserve">
<g>
	<g>
		<path d="M160,32.134c-20.639,0.055-39.992,10.037-52,26.824c-20.563,28.711-13.957,68.656,14.755,89.219
			c10.861,7.779,23.886,11.96,37.245,11.957c35.33-0.04,63.96-28.67,64-64C223.934,60.815,195.319,32.2,160,32.134z M207.328,88.134
			h-16.472c-0.411-1.576-0.946-3.117-1.6-4.608l13.008-10.12C204.757,78.001,206.468,82.978,207.328,88.134z M168,48.878
			c9.11,1.529,17.576,5.682,24.36,11.952l-12.928,10.056c-3.387-2.641-7.277-4.563-11.432-5.648V48.878z M169.057,83.01
			c1.331,0.935,2.51,2.07,3.495,3.364l6.312-4.912l-6.304,4.92c2.206,2.774,3.418,6.208,3.44,9.752c0,8.837-7.163,16-16,16
			s-16-7.163-16-16c0.008-3.332,1.066-6.576,3.024-9.272C152.045,79.714,161.909,77.99,169.057,83.01z M152,48.934V65.19
			c-4.596,1.205-8.867,3.415-12.504,6.472l-13.248-9.472C133.266,55.23,142.258,50.601,152,48.934z M151.721,143.137
			c-22.863-4.003-39.587-23.792-39.721-47.003c0.003-7.27,1.678-14.441,4.896-20.96l13.336,9.528
			c-1.449,3.639-2.206,7.516-2.232,11.432c-0.022,17.638,14.258,31.954,31.896,31.976c14.587,0.018,27.332-9.849,30.968-23.976
			h16.416C202.708,130.247,177.834,147.709,151.721,143.137z"/>
	</g>
</g>
<g>
	<g>
		<path d="M473.176,437.454L367.8,332.078c24.235-41.559,21.078-93.618-8-131.944h0.2v-160c-0.026-22.08-17.92-39.974-40-40H40
			c-22.08,0.026-39.974,17.92-40,40v112h64v304h296v-60.136l77.04,77.04c10.041,9.916,26.219,9.815,36.135-0.225
			c4.629-4.687,7.269-10.98,7.369-17.567C480.562,448.57,477.909,442.163,473.176,437.454z M368,272.134
			c-0.066,57.41-46.59,103.934-104,104c-57.438,0-104-46.562-104-104s46.562-104,104-104S368,214.697,368,272.134z M64,136.134H16
			v-96c-0.005-13.255,10.735-24.004,23.99-24.01c11.388-0.005,21.211,7.994,23.514,19.146v0.096c0.324,1.569,0.49,3.166,0.496,4.768
			V136.134z M344,440.134H80v-400c-0.045-2.343-0.281-4.679-0.704-6.984c-0.128-0.709-0.272-1.413-0.432-2.112
			c-1.099-5.312-3.192-10.369-6.168-14.904H320c13.255,0,24,10.745,24,24v142.808c-49.155-44.288-124.905-40.343-169.193,8.811
			C140.085,230.29,134.109,286.795,160,331.742v84.392h16v-62.688c40.858,44.568,108.593,51.532,157.664,16.208L344,379.99V440.134z
			 M455.122,464.415c-0.097-0.001-0.194-0.004-0.29-0.008l0,0c-2.431,0.006-4.763-0.959-6.48-2.68l-101.04-101.048l13.232-13.232
			l101.32,101.32c1.721,1.716,2.686,4.049,2.68,6.48C464.474,460.38,460.256,464.485,455.122,464.415z"/>
	</g>
</g>
<g>
	<g>
		<path d="M264,184.134c-48.601,0-88,39.399-88,88c0,48.601,39.399,88,88,88s88-39.399,88-88
			C351.943,223.557,312.577,184.192,264,184.134z M264,344.134c-39.764,0-72-32.236-72-72c0-39.765,32.236-72,72-72
			c39.765,0,72,32.235,72,72C335.956,311.88,303.746,344.09,264,344.134z"/>
	</g>
</g>
<g>
	<g>
		<rect x="248" y="48.134" width="80" height="16"/>
	</g>
</g>
<g>
	<g>
		<rect x="248" y="80.134" width="80" height="16"/>
	</g>
</g>
<g>
	<g>
		<rect x="248" y="112.134" width="40" height="16"/>
	</g>
</g>
<g>
	<g>
		<rect x="104" y="184.134" width="40" height="16"/>
	</g>
</g>
<g>
	<g>
		<rect x="104" y="216.134" width="40" height="16"/>
	</g>
</g>
<g>
	<g>
		<rect x="96" y="376.134" width="16" height="40"/>
	</g>
</g>
<g>
	<g>
		<rect x="128" y="336.134" width="16" height="80"/>
	</g>
</g>
<g>
	<g>
		<path d="M312.504,244.134c-1.928-3.337-4.196-6.466-6.768-9.336c-2.977-3.264-8.037-3.497-11.302-0.52
			c-3.222,2.939-3.497,7.916-0.618,11.192c1.838,2.052,3.46,4.288,4.84,6.672c1.429,2.475,4.07,4,6.928,4
			c1.406,0.002,2.787-0.37,4-1.08C313.407,252.85,314.714,247.958,312.504,244.134z"/>
	</g>
</g>
<g>
	<g>
		<path d="M264,216.134c-30.913,0.035-55.965,25.087-56,56c0,4.418,3.582,8,8,8s8-3.582,8-8c0.026-22.08,17.92-39.974,40-40
			c4.418,0,8-3.582,8-8S268.418,216.134,264,216.134z"/>
	</g>
</g>
<g>
</g>
<g>
</g>
<g>
</g>
<g>
</g>
<g>
</g>
<g>
</g>
<g>
</g>
<g>
</g>
<g>
</g>
<g>
</g>
<g>
</g>
<g>
</g>
<g>
</g>
<g>
</g>
<g>
</g>
</svg>
