<?xml version="1.0" encoding="iso-8859-1"?>
<!-- Generator: Adobe Illustrator 19.0.0, SVG Export Plug-In . SVG Version: 6.00 Build 0)  -->
<svg version="1.1" id="Capa_1" xmlns="http://www.w3.org/2000/svg" xmlns:xlink="http://www.w3.org/1999/xlink" x="0px" y="0px"
	 viewBox="0 0 488 488" style="enable-background:new 0 0 488 488;" xml:space="preserve">
<g>
	<g>
		<path d="M476,224h-16V24c0-13.255-10.745-24-24-24H52C38.745,0,28,10.745,28,24v256H12c-4.418,0-8,3.582-8,8v192
			c0,4.418,3.582,8,8,8h112c4.418,0,8-3.582,8-8v-64h160.464v64c0,4.418,3.582,8,8,8H476c4.418,0,8-3.582,8-8V232
			C484,227.582,480.418,224,476,224z M44,24c0-4.418,3.582-8,8-8h384c4.418,0,8,3.582,8,8v16H44V24z M116,472H20v-24h96V472z
			 M116,408v24H20V328h96V408z M116,312H20v-16h96V312z M124,280H44v-16h248.464v32H132v-8C132,283.582,128.418,280,124,280z
			 M160.904,312l-18.664,56H132v-56H160.904z M292,400H132v-16h160V400z M292.464,368H236h-76.896l18.656-56h114.704V368z
			 M292.464,232v16H44V56h400v168H300.464C296.046,224,292.464,227.582,292.464,232z M468,472H308.464v-24H468V472z M468,432
			H308.464V272H468V432z M468,256H308.464v-16H468V256z"/>
	</g>
</g>
<g>
	<g>
		<rect x="36" y="400" width="16" height="16"/>
	</g>
</g>
<g>
	<g>
		<rect x="60" y="376" width="16" height="40"/>
	</g>
</g>
<g>
	<g>
		<rect x="84" y="352" width="16" height="64"/>
	</g>
</g>
<g>
	<g>
		<rect x="348" y="384" width="16" height="32"/>
	</g>
</g>
<g>
	<g>
		<rect x="380" y="360" width="16" height="56"/>
	</g>
</g>
<g>
	<g>
		<rect x="412" y="336" width="16" height="80"/>
	</g>
</g>
<g>
	<g>
		<path d="M196,152h-32c-4.418,0-8,3.582-8,8v40c0,4.418,3.582,8,8,8h32c4.418,0,8-3.582,8-8v-40C204,155.582,200.418,152,196,152z
			 M188,192h-16v-24h16V192z"/>
	</g>
</g>
<g>
	<g>
		<path d="M260,120h-32c-4.418,0-8,3.582-8,8v72c0,4.418,3.582,8,8,8h32c4.418,0,8-3.582,8-8v-72C268,123.582,264.418,120,260,120z
			 M252,192h-16v-56h16V192z"/>
	</g>
</g>
<g>
	<g>
		<path d="M324,80h-32c-4.418,0-8,3.582-8,8v112c0,4.418,3.582,8,8,8h32c4.418,0,8-3.582,8-8V88C332,83.582,328.418,80,324,80z
			 M316,192h-16V96h16V192z"/>
	</g>
</g>
<g>
	<g>
		<rect x="60" y="72" width="64" height="16"/>
	</g>
</g>
<g>
	<g>
		<rect x="60" y="104" width="64" height="16"/>
	</g>
</g>
<g>
	<g>
		<rect x="60" y="136" width="32" height="16"/>
	</g>
</g>
<g>
	<g>
		<rect x="388" y="168" width="40" height="16"/>
	</g>
</g>
<g>
	<g>
		<rect x="388" y="136" width="40" height="16"/>
	</g>
</g>
<g>
	<g>
		<rect x="316" y="280" width="32" height="16"/>
	</g>
</g>
<g>
	<g>
		<rect x="316" y="304" width="32" height="16"/>
	</g>
</g>
<g>
	<g>
		<rect x="316" y="328" width="16" height="16"/>
	</g>
</g>
</svg>
