<?xml version="1.0" encoding="iso-8859-1"?>
<!-- Generator: Adobe Illustrator 19.0.0, SVG Export Plug-In . SVG Version: 6.00 Build 0)  -->
<svg version="1.1" id="Capa_1" xmlns="http://www.w3.org/2000/svg" xmlns:xlink="http://www.w3.org/1999/xlink" x="0px" y="0px"
	 viewBox="0 0 480.039 480.039" style="enable-background:new 0 0 480.039 480.039;" xml:space="preserve">
	<g>
		<g>
			<path d="M245.482,234.345c-3.1-2.994-8.015-2.994-11.115,0L100.71,368.001H56.022c-1.87-0.001-3.682,0.652-5.12,1.848l-48,40
				c-3.405,2.815-3.883,7.858-1.067,11.263c0.857,1.036,1.962,1.84,3.211,2.337l36,14.4l7.136,35.752
				c0.869,4.332,5.085,7.139,9.417,6.27c1.545-0.31,2.964-1.069,4.079-2.182l48-48c1.508-1.508,2.352-3.555,2.344-5.688v-44.688
				l133.656-133.656C248.748,242.478,248.66,237.414,245.482,234.345z M46.094,422.609l-22.64-9.056l35.464-29.552H84.71
				L46.094,422.609z M96.022,420.689l-35.088,35.088l-4.232-21.144l39.32-39.32V420.689z"/>
		</g>
	</g>
	<g>
		<g>
			<path d="M361.7,33.145C324.82,11.447,282.811,0.004,240.022,0.001C107.443,0.032-0.008,107.534,0.023,240.114
				c0.01,43.719,11.96,86.606,34.559,124.031c2.289,3.78,7.208,4.989,10.988,2.7c3.78-2.289,4.989-7.208,2.7-10.988
				c-19.685-32.635-30.693-69.765-31.976-107.856h40c1.392,34.364,12.45,67.639,31.904,96c2.466,3.666,7.437,4.639,11.103,2.172
				s4.639-7.437,2.172-11.103c-0.03-0.045-0.061-0.089-0.092-0.133c-17.618-25.695-27.686-55.811-29.064-86.936h48
				c1.212,18.313,6.612,36.103,15.784,52c2.234,3.812,7.136,5.09,10.947,2.856c3.776-2.214,5.072-7.051,2.909-10.856
				c-7.712-13.476-12.295-28.513-13.408-44h48.144c0.487,3.631,1.328,7.205,2.512,10.672c1.476,4.166,6.05,6.348,10.216,4.872
				c4.166-1.476,6.348-6.05,4.872-10.216c-7.334-20.81,3.59-43.626,24.4-50.96c20.81-7.334,43.626,3.59,50.96,24.4
				c7.334,20.81-3.59,43.626-24.4,50.96c-8.594,3.029-17.966,3.029-26.56,0c-4.182-1.427-8.728,0.807-10.154,4.989
				c-1.403,4.112,0.733,8.592,4.81,10.091c3.466,1.188,7.04,2.029,10.672,2.512v48.344c-16.125-1.21-31.742-6.18-45.6-14.512
				c-3.71-2.4-8.662-1.338-11.062,2.372c-2.4,3.71-1.338,8.662,2.372,11.062c0.142,0.092,0.287,0.179,0.435,0.262
				c16.348,9.842,34.815,15.63,53.856,16.88v48c-31.131-1.388-61.252-11.464-86.952-29.088c-3.502-2.694-8.525-2.039-11.219,1.463
				c-2.694,3.502-2.039,8.525,1.463,11.219c0.227,0.175,0.463,0.337,0.707,0.486c28.364,19.447,61.637,30.502,96,31.896v40
				c-37.2-1.26-73.497-11.786-105.6-30.624c-3.729-2.37-8.673-1.268-11.043,2.461c-2.37,3.729-1.268,8.673,2.461,11.043
				c0.151,0.096,0.305,0.187,0.462,0.272c114.243,67.212,261.342,29.086,328.555-85.157S475.943,100.357,361.7,33.145z
				M232.022,184.641c-24.528,3.566-43.794,22.832-47.36,47.36H136.43c3.985-51.053,44.539-91.607,95.592-95.592V184.641z
				M232.022,120.409c-59.865,4.066-107.526,51.727-111.592,111.592h-48c4.193-86.344,73.248-155.399,159.592-159.592V120.409z
				M232.022,56.201c-95.271,4.262-171.538,80.529-175.8,175.8h-40c4.328-117.344,98.456-211.472,215.8-215.8V56.201z
				M248.022,16.201c117.344,4.328,211.472,98.456,215.8,215.8h-40c-4.262-95.271-80.529-171.538-175.8-175.8V16.201z
				M248.022,72.409c86.344,4.193,155.399,73.248,159.592,159.592h-48c-4.066-59.865-51.727-107.526-111.592-111.592V72.409z
				M248.022,184.641v-48.232c51.053,3.985,91.607,44.539,95.592,95.592h-48.232C291.816,207.473,272.55,188.207,248.022,184.641z
				M248.022,295.361c24.528-3.566,43.794-22.832,47.36-47.36h48.232c-3.985,51.053-44.539,91.607-95.592,95.592V295.361z
				M248.022,359.593c59.865-4.066,107.526-51.727,111.592-111.592h48c-4.193,86.344-73.248,155.399-159.592,159.592V359.593z
				M248.022,463.801v-40c95.271-4.262,171.538-80.529,175.8-175.8h40C459.495,365.344,365.366,459.473,248.022,463.801z"/>
		</g>
</svg>
