<?xml version="1.0" encoding="iso-8859-1"?>
<!-- Generator: Adobe Illustrator 19.0.0, SVG Export Plug-In . SVG Version: 6.00 Build 0)  -->
<svg version="1.1" id="Capa_1" xmlns="http://www.w3.org/2000/svg" xmlns:xlink="http://www.w3.org/1999/xlink" x="0px" y="0px"
	 viewBox="0 0 485.696 485.696" style="enable-background:new 0 0 485.696 485.696;" xml:space="preserve">
	<g>
		<g>
			<path d="M410.316,320h-21.192l-18.008-14.4l11.544-69.896c2.429-8.428,3.66-17.157,3.656-25.928v-62.632
				c0.027-20.276-4.229-40.33-12.488-58.848l-4.88-10.976c-10.695-24.002-30.975-42.413-55.896-50.744
				c-20.246-6.694-41.412-10.192-62.736-10.368V8c0-4.418-3.582-8-8-8h-40c-4.418,0-8,3.582-8,8v15.2
				c-2.336,0.624-4.688,1.192-7.008,1.904l-1.272,0.392c-28.854,8.908-51.647,31.177-61.224,59.816l-3.392,10.16
				c-15.365,45.871-16.447,95.325-3.104,141.824c17.712,59.874,11.622,124.275-17,179.768L67.38,476l13.872,8l34.176-59.36
				c30.616-59.155,37.172-127.858,18.296-191.736c-12.458-43.397-11.454-89.554,2.88-132.368l3.384-10.152
				c7.932-23.748,26.828-42.215,50.752-49.6l1.264-0.392c0.8-0.24,1.544-0.4,2.312-0.632v98.856
				c-14.434,5.561-23.968,19.42-24,34.888v53c0.026,20.701,16.803,37.474,37.504,37.496h29c5.526-0.029,10.976-1.292,15.952-3.696
				l95.448,77.552c-4.048,7.552-11.928,12.258-20.496,12.24h-26.208l-53.6-51.856c-3.181-3.071-8.249-2.981-11.32,0.2
				c-3.071,3.181-2.981,8.249,0.2,11.32l53.52,51.736v7.48c0.036,19.292,8.414,37.626,22.976,50.28l67.424,66.44l11.2-11.392
				l-67.368-66.4c-11.526-9.648-18.199-23.897-18.232-38.928v-2.88h21.408c13.371,0.019,25.821-6.81,32.992-18.096l12.544,10.184
				c1.426,1.17,3.212,1.812,5.056,1.816h32c4.418,0,8-3.582,8-8v-24C418.316,323.582,414.734,320,410.316,320z M210.316,16h24v120
				h-24V16z M258.316,226.504c-0.018,11.865-9.631,21.478-21.496,21.496h-29c-11.868-0.013-21.486-9.628-21.504-21.496v-53
				c0.013-11.871,9.633-21.491,21.504-21.504h29c11.868,0.018,21.483,9.636,21.496,21.504V226.504z M250.316,138.616V32.192
				c19.604,0.175,39.061,3.4,57.672,9.56c20.656,6.912,37.463,22.176,46.328,42.072l4.872,10.976
				c7.356,16.469,11.148,34.307,11.128,52.344v62.632c0.001,7.407-1.06,14.775-3.152,21.88c-0.092,0.313-0.164,0.63-0.216,0.952
				l-10.168,61.52L274.164,228c0-0.52,0.152-1.008,0.152-1.528v-52.968C274.284,158.036,264.75,144.177,250.316,138.616z
				M402.316,344h-21.16l-115.488-93.84c1.401-1.703,2.648-3.526,3.728-5.448l111.92,89.536c1.419,1.135,3.183,1.753,5,1.752h16V344z
				"/>
		</g>
	</g>
	<g>
		<g>
			<path d="M234.316,160h-24c-8.837,0-16,7.163-16,16v48c0,8.837,7.163,16,16,16h24c8.837,0,16-7.163,16-16v-48
				C250.316,167.163,243.153,160,234.316,160z M234.316,224h-24v-48h24V224z"/>
		</g>
	</g>
</svg>
